<?xml version="1.0" encoding="UTF-8" standalone="no"?>
<!-- Created with Inkscape (http://www.inkscape.org/) -->

<svg
   xmlns:dc="http://purl.org/dc/elements/1.1/"
   xmlns:cc="http://creativecommons.org/ns#"
   xmlns:rdf="http://www.w3.org/1999/02/22-rdf-syntax-ns#"
   xmlns:svg="http://www.w3.org/2000/svg"
   xmlns="http://www.w3.org/2000/svg"
   xmlns:sodipodi="http://sodipodi.sourceforge.net/DTD/sodipodi-0.dtd"
   xmlns:inkscape="http://www.inkscape.org/namespaces/inkscape"
   id="svg2"
   version="1.1"
   inkscape:version="0.92.3 (2405546, 2018-03-11)"
   xml:space="preserve"
   width="550pt"
   height="180pt"
   viewBox="0 0 687.50001 225.00001"
   sodipodi:docname="logo_white.svg"><metadata
     id="metadata8"><rdf:RDF><cc:Work
         rdf:about=""><dc:format>image/svg+xml</dc:format><dc:type
           rdf:resource="http://purl.org/dc/dcmitype/StillImage" /><dc:title></dc:title></cc:Work></rdf:RDF></metadata><defs
     id="defs6"><clipPath
       clipPathUnits="userSpaceOnUse"
       id="clipPath16"><path
         d="m 0,1008.912 774.066,0 L 774.066,0 0,0 0,1008.912 Z"
         id="path18"
         inkscape:connector-curvature="0" /></clipPath><clipPath
       clipPathUnits="userSpaceOnUse"
       id="clipPath76"><path
         d="m 0,1008.912 774.066,0 L 774.066,0 0,0 0,1008.912 Z"
         id="path78"
         inkscape:connector-curvature="0" /></clipPath></defs><sodipodi:namedview
     pagecolor="#ffffff"
     bordercolor="#666666"
     borderopacity="1"
     objecttolerance="10"
     gridtolerance="10"
     guidetolerance="10"
     inkscape:pageopacity="0"
     inkscape:pageshadow="2"
     inkscape:window-width="1920"
     inkscape:window-height="1031"
     id="namedview4"
     showgrid="false"
     inkscape:zoom="1.2882385"
     inkscape:cx="317.07409"
     inkscape:cy="17.503163"
     inkscape:window-x="0"
     inkscape:window-y="25"
     inkscape:window-maximized="1"
     inkscape:current-layer="g10"
     inkscape:document-units="pt"
     units="pt"
     fit-margin-top="15"
     fit-margin-left="15"
     fit-margin-right="15"
     fit-margin-bottom="15"
     showguides="true"
     inkscape:guide-bbox="true"
     inkscape:pagecheckerboard="false"><sodipodi:guide
       position="526.11531,46.909564"
       orientation="1,0"
       id="guide4171"
       inkscape:locked="false" /><sodipodi:guide
       position="4.1592596,-356.14533"
       orientation="0,1"
       id="guide4173"
       inkscape:locked="false" /><sodipodi:guide
       position="10.876841,-298.37413"
       orientation="0,1"
       id="guide4224"
       inkscape:locked="false" /></sodipodi:namedview><g
     id="g10"
     inkscape:groupmode="layer"
     inkscape:label="LOGOS-MAARCH-deÌclinaisons"
     transform="matrix(1.25,0,0,-1.25,-40.916186,305.53211)"><g
       id="g4577"><g
         transform="matrix(1.5207255,0,0,1.5634901,3.3573765,30.660936)"
         id="g4153"
         style="fill:#ffffff;fill-opacity:1"><path
           inkscape:connector-curvature="0"
           id="path206"
           style="fill:#ffffff;fill-opacity:1;fill-rule:nonzero;stroke:none"
           d="m 169.11968,79.730378 -17.731,31.572002 V 71.371378 c 0,-1.461 -1.273,-2.679 -2.8,-2.679 -1.528,0 -2.8,1.218 -2.8,2.679 v 50.563002 c 0,1.461 1.272,2.678 2.8,2.678 1.272,0 2.121,-0.73 2.545,-1.542 l 20.531,-36.766002 20.616,36.766002 c 0.339,0.568 1.018,1.542 2.545,1.542 1.527,0 2.8,-1.217 2.8,-2.678 V 71.371378 c 0,-1.461 -1.273,-2.679 -2.8,-2.679 -1.527,0 -2.8,1.218 -2.8,2.679 v 39.931002 l -17.816,-31.572002 c -0.594,-1.055 -1.527,-1.542 -2.545,-1.542 -0.849,0 -1.951,0.405 -2.545,1.542" /><path
           inkscape:connector-curvature="0"
           id="path210"
           style="fill:#ffffff;fill-opacity:1;fill-rule:nonzero;stroke:none"
           d="m 231.56108,83.382678 v 3.409 h -11.962 c -5.515,0 -9.332,-2.191 -9.332,-6.899 0,-4.22 3.054,-6.899 9.671,-6.899 5.939,0 11.623,3.491 11.623,10.389 m -19.852,14.934002 c -0.848,-0.893 -1.442,-1.136 -2.206,-1.136 -1.357,0 -2.461,1.055 -2.461,2.353 0,0.568 0.17,0.974 0.425,1.38 2.375,3.571 6.957,6.411 14.083,6.411 9.841,0 15.271,-5.518 15.271,-13.796002 v -22.32 c 0,-1.38 -1.188,-2.516 -2.63,-2.516 -1.443,0 -2.63,1.136 -2.63,2.516 v 2.921 c -2.121,-3.814 -7.041,-5.843 -12.132,-5.843 -8.993,0 -14.677,4.139 -14.677,11.606 0,7.142 5.684,11.444 14.847,11.444 h 11.962 v 2.192 c 0,5.518002 -3.817,8.927002 -10.011,8.927002 -4.496,0 -7.211,-1.299 -9.841,-4.139" /><path
           inkscape:connector-curvature="0"
           id="path214"
           style="fill:#ffffff;fill-opacity:1;fill-rule:nonzero;stroke:none"
           d="m 268.63528,83.382678 v 3.409 h -11.962 c -5.515,0 -9.332,-2.191 -9.332,-6.899 0,-4.22 3.054,-6.899 9.671,-6.899 5.939,0 11.623,3.491 11.623,10.389 m -19.852,14.934002 c -0.848,-0.893 -1.442,-1.136 -2.206,-1.136 -1.357,0 -2.461,1.055 -2.461,2.353 0,0.568 0.17,0.974 0.425,1.38 2.375,3.571 6.957,6.411 14.083,6.411 9.841,0 15.271,-5.518 15.271,-13.796002 v -22.32 c 0,-1.38 -1.188,-2.516 -2.63,-2.516 -1.443,0 -2.63,1.136 -2.63,2.516 v 2.921 c -2.121,-3.814 -7.041,-5.843 -12.132,-5.843 -8.993,0 -14.677,4.139 -14.677,11.606 0,7.142 5.684,11.444 14.847,11.444 h 11.962 v 2.192 c 0,5.518002 -3.817,8.927002 -10.011,8.927002 -4.496,0 -7.211,-1.299 -9.841,-4.139" /><path
           inkscape:connector-curvature="0"
           id="path218"
           style="fill:#ffffff;fill-opacity:1;fill-rule:nonzero;stroke:none"
           d="m 286.96148,100.66978 c 1.696,3.733 5.938,6.493 11.793,6.493 1.441,0 2.63,-1.137 2.63,-2.515 0,-1.38 -1.189,-2.517 -2.63,-2.517 -7.806,0 -11.793,-5.194 -11.793,-12.661002 v -18.18 c 0,-1.461 -1.187,-2.598 -2.715,-2.598 -1.527,0 -2.715,1.137 -2.715,2.598 v 32.951002 c 0,1.461 1.188,2.598 2.715,2.598 1.528,0 2.715,-1.137 2.715,-2.598 z" /><path
           inkscape:connector-curvature="0"
           id="path222"
           style="fill:#ffffff;fill-opacity:1;fill-rule:nonzero;stroke:none"
           d="m 319.70948,107.32508 c 7.551,0 11.708,-3.814 13.065,-5.6 0.424,-0.568 0.594,-0.974 0.594,-1.542 0,-1.379 -1.103,-2.354 -2.461,-2.354 -0.847,0 -1.442,0.325 -2.036,0.975 -1.272,1.379 -3.562,3.814 -9.162,3.814 -7.806,0 -11.963,-4.789 -11.963,-14.772002 0,-10.145 4.157,-14.852 11.963,-14.852 4.921,0 7.89,2.11 9.841,3.49 0.595,0.405 1.018,0.568 1.612,0.568 1.358,0 2.46,-1.055 2.46,-2.354 0,-0.73 -0.254,-1.299 -1.102,-2.029 -1.867,-1.46 -5.939,-4.382 -12.811,-4.382 -10.944,0 -17.477,6.249 -17.477,19.559 0,13.311002 6.533,19.479002 17.477,19.479002" /><path
           inkscape:connector-curvature="0"
           id="path226"
           style="fill:#ffffff;fill-opacity:1;fill-rule:nonzero;stroke:none"
           d="m 371.12258,92.959878 v -21.67 c 0,-1.461 -1.187,-2.598 -2.715,-2.598 -1.526,0 -2.715,1.137 -2.715,2.598 v 20.614 c 0,6.412002 -1.951,10.795002 -10.18,10.795002 -8.399,0 -11.284,-4.87 -11.284,-11.362002 v -20.047 c 0,-1.461 -1.187,-2.598 -2.714,-2.598 -1.528,0 -2.715,1.137 -2.715,2.598 v 53.241002 c 0,1.461 1.187,2.598 2.715,2.598 1.527,0 2.714,-1.137 2.714,-2.598 v -22.886 c 1.612,3.084 5.769,5.68 11.284,5.68 13.065,0 15.61,-7.467 15.61,-14.365002" /></g><g
         transform="matrix(1.4545106,0,0,1.4954132,-117.27678,-81.700895)"
         id="g4228"
         style="fill:#ffffff;fill-opacity:1"><path
           inkscape:connector-curvature="0"
           id="path230"
           style="fill:#ffffff;fill-opacity:1;fill-rule:nonzero;stroke:none"
           d="m 170.37832,133.55512 -43.33606,43.61895 v -52.82465 h 90.70821 V 110.89549 H 113.44689 v 80.01641 l 9.34714,9.9836 47.72573,-48.00964 z" /><path
           inkscape:connector-curvature="0"
           id="path234"
           style="fill:#ffffff;fill-opacity:1;fill-rule:nonzero;stroke:none"
           d="m 218.26815,201.60622 v -20.26979 l -48.0858,-48.08583 -9.46177,10.01735 z" /></g><text
         transform="scale(1,-1)"
         id="text841"
         y="-81.034706"
         x="366.84543"
         style="font-style:normal;font-variant:normal;font-weight:normal;font-stretch:normal;font-size:30.00000191px;line-height:1.25;font-variant-ligatures:normal;font-variant-caps:normal;font-variant-numeric:normal;font-feature-settings:normal;text-align:start;letter-spacing:0px;word-spacing:0px;writing-mode:lr-tb;text-anchor:start;fill:#ffffff;fill-opacity:1;stroke:none;stroke-width:0.75000006"
         xml:space="preserve"><tspan
           style="font-style:normal;font-variant:normal;font-weight:normal;font-stretch:normal;font-size:50.00000381px;font-family:Bariol;-inkscape-font-specification:'Bariol, Normal';font-variant-ligatures:normal;font-variant-caps:normal;font-variant-numeric:normal;font-feature-settings:normal;text-align:start;writing-mode:lr-tb;text-anchor:start;fill:#ffffff;fill-opacity:1;stroke-width:0.75000006"
           y="-81.034706"
           x="366.84543"
           id="tspan839"
           sodipodi:role="line">Parapheur</tspan></text>
</g></g></svg>