<svg xmlns="http://www.w3.org/2000/svg" viewBox="0 0 915.33 190.57"><defs><style>.cls-1,.cls-4{fill:none;}.cls-1,.cls-3,.cls-4{stroke:#fff;stroke-miterlimit:10;}.cls-1{stroke-width:2.52px;}.cls-2,.cls-3{fill:#fff;}.cls-4{stroke-linecap:round;stroke-width:6.45px;}</style></defs><title>logo_whote</title><g id="Calque_1" data-name="Calque 1"><path class="cls-1" d="M264.63,128.27H229.1v.2c1,7.65,6.74,13.39,13.39,13.49a17.42,17.42,0,0,0,11.27-4.83l7.25,4.33a27.31,27.31,0,0,1-6.14,5.13A26.29,26.29,0,0,1,242.68,150a20.63,20.63,0,0,1-15.6-7,23.76,23.76,0,0,1-6.24-14.49,14.88,14.88,0,0,1-.1-2.11,25,25,0,0,1,.6-5.44,24.24,24.24,0,0,1,5.74-11.17,21.06,21.06,0,0,1,15.6-6.94,21.28,21.28,0,0,1,15.7,6.94A23.33,23.33,0,0,1,264.12,121,27.67,27.67,0,0,1,264.63,128.27ZM255.57,121l-.1-.2c-2-5.94-7.15-10-12.78-10s-10.67,4-12.78,10l-.1.2Z"/><path class="cls-1" d="M317.46,124.44V149.2H308.8V124.44a13.59,13.59,0,1,0-27.17-.74q0,.37,0,.74V149.2H273V103.1h8.66v4.43c3.93-3,8.66-5.33,13.59-5.33a22.14,22.14,0,0,1,15.8,6.44A22.39,22.39,0,0,1,317.46,124.44Z"/><circle class="cls-2" cx="61.93" cy="121.12" r="10.81"/><path class="cls-2" d="M61.93,133.82a12.7,12.7,0,1,1,12.7-12.7h0A12.71,12.71,0,0,1,61.93,133.82Zm0-21.61a8.91,8.91,0,1,0,8.91,8.91h0a8.92,8.92,0,0,0-8.91-8.92Z"/><circle class="cls-2" cx="130.86" cy="121.12" r="10.81"/><path class="cls-2" d="M130.86,133.82a12.7,12.7,0,1,1,12.7-12.7h0A12.71,12.71,0,0,1,130.86,133.82Zm0-21.61a8.91,8.91,0,1,0,8.91,8.91,8.91,8.91,0,0,0-8.91-8.91Z"/><circle class="cls-2" cx="59.21" cy="118.39" r="3.38"/><circle class="cls-2" cx="126.82" cy="118.39" r="3.38"/><path class="cls-2" d="M144.85,188.68H48A28.48,28.48,0,0,1,19.37,160.4V100.51A28.48,28.48,0,0,1,48,72.23h96.9a28.48,28.48,0,0,1,28.58,28.28V160.4A28.48,28.48,0,0,1,144.85,188.68ZM48,79.15a21.76,21.76,0,0,0-21.87,21.36V160.4A21.76,21.76,0,0,0,48,182h96.9a21.76,21.76,0,0,0,21.87-21.56V100.51A21.76,21.76,0,0,0,144.85,79Z"/><path class="cls-2" d="M145,190.57H47.84a30.43,30.43,0,0,1-30.37-30.16v-59.9A30.44,30.44,0,0,1,47.84,70.34H145a30.43,30.43,0,0,1,30.36,30.16v59.9A30.43,30.43,0,0,1,145,190.57Zm-97-3.79h97a26.63,26.63,0,0,0,26.59-26.4V100.51A26.63,26.63,0,0,0,145,74.13H47.85a26.64,26.64,0,0,0-26.59,26.4V160.4a26.63,26.63,0,0,0,26.59,26.38Zm-.11-2.93a23.7,23.7,0,0,1-23.65-23.44v-59.9a23.76,23.76,0,0,1,23.6-23.25H48l96.9-.2H145a23.71,23.71,0,0,1,23.65,23.44v59.9a23.68,23.68,0,0,1-23.77,23.46h-97ZM47.84,81A20,20,0,0,0,28,100.55V160.4a19.91,19.91,0,0,0,19.87,19.67H145a19.91,19.91,0,0,0,19.88-19.69V100.51A19.91,19.91,0,0,0,145,80.84h-.09l-97,.16Z"/><path class="cls-2" d="M175.76,156.92h-9V104.2h9a15.15,15.15,0,0,1,15.15,15.15v22.07a15.15,15.15,0,0,1-14.79,15.5Zm-2.27-6.77h2.27a8.58,8.58,0,0,0,8.58-8.58h0V119.5a8.58,8.58,0,0,0-8.58-8.58h-2.27Z"/><path class="cls-2" d="M175.76,158.81H164.82v-56.5h10.93a17.06,17.06,0,0,1,17,17v22.07a17,17,0,0,1-16.64,17.39ZM168.61,155h7.46A13.27,13.27,0,0,0,189,141.46V119.35a13.27,13.27,0,0,0-13.26-13.26h-7.15Zm7.15-3h-4.17V109h4.17a10.49,10.49,0,0,1,10.48,10.48v22.07A10.49,10.49,0,0,1,175.76,152Zm-.38-3.79h.38a6.7,6.7,0,0,0,6.69-6.69v-22a6.7,6.7,0,0,0-6.69-6.69h-.38Z"/><path class="cls-2" d="M26.08,156.92H17A15.15,15.15,0,0,1,1.89,141.77h0V119.5A15.15,15.15,0,0,1,17,104.35h9Zm-9-46A8.58,8.58,0,0,0,8.5,119.5h0v22.07a8.58,8.58,0,0,0,8.5,8.58h2.27V111Z"/><path class="cls-2" d="M28,158.81H17a17.06,17.06,0,0,1-17-17V119.5a17.06,17.06,0,0,1,17-17H28ZM17,106.24A13.27,13.27,0,0,0,3.79,119.5v22.27A13.27,13.27,0,0,0,17,155h7.15V106.24ZM21.21,152H17A10.49,10.49,0,0,1,6.56,141.57V119.5A10.49,10.49,0,0,1,17,109h0l4.12.09ZM17,112.81a6.7,6.7,0,0,0-6.67,6.69v22.07A6.7,6.7,0,0,0,17,148.26h.38V112.82Z"/><path class="cls-2" d="M96.37,78.19a2.42,2.42,0,0,1-2.52-2.32h0V62.29a2.52,2.52,0,1,1,5,0V75.77a2.42,2.42,0,0,1-2.41,2.43h-.07Z"/><path class="cls-2" d="M96.27,80.09A4.32,4.32,0,0,1,92,76V62.29a4.42,4.42,0,1,1,8.84,0h0V75.77a4.32,4.32,0,0,1-4.31,4.32h-.26Zm.09-3.79h.07l-.05,1.89.1-1.89a.53.53,0,0,0,.53-.53V62.29a.63.63,0,1,0-1.26,0V75.77a.52.52,0,0,0,.51.53h.1Z"/><path class="cls-2" d="M126.24,62.51H69A20,20,0,0,1,49.1,42.59V19.93A20,20,0,0,1,69,0h57.22a20,20,0,0,1,19.93,19.93V42.59A20,20,0,0,1,126.24,62.51ZM69,9A10.94,10.94,0,0,0,58.1,19.93V42.59A10.94,10.94,0,0,0,69,53.51h57.22a10.94,10.94,0,0,0,10.93-10.93V19.93A10.94,10.94,0,0,0,126.24,9Z"/><path class="cls-2" d="M264.63,128.27H229.1v.2c1,7.65,6.74,13.39,13.39,13.49a17.42,17.42,0,0,0,11.27-4.83l7.25,4.33a27.31,27.31,0,0,1-6.14,5.13A26.29,26.29,0,0,1,242.68,150a20.63,20.63,0,0,1-15.6-7,23.76,23.76,0,0,1-6.24-14.49,14.88,14.88,0,0,1-.1-2.11,25,25,0,0,1,.6-5.44,24.24,24.24,0,0,1,5.74-11.17,21.06,21.06,0,0,1,15.6-6.94,21.28,21.28,0,0,1,15.7,6.94A23.33,23.33,0,0,1,264.12,121,27.67,27.67,0,0,1,264.63,128.27ZM255.57,121l-.1-.2c-2-5.94-7.15-10-12.78-10s-10.67,4-12.78,10l-.1.2Z"/><path class="cls-2" d="M317.46,124.44V149.2H308.8V124.44a13.59,13.59,0,1,0-27.17-.74q0,.37,0,.74V149.2H273V103.1h8.66v4.43c3.93-3,8.66-5.33,13.59-5.33a22.14,22.14,0,0,1,15.8,6.44A22.39,22.39,0,0,1,317.46,124.44Z"/><path class="cls-3" d="M688.9,124.44V149.2h-8.66V124.44a13.59,13.59,0,1,0-27.17-.74q0,.37,0,.74V149.2h-8.63V103.1h8.66v4.43c3.93-3,8.66-5.33,13.59-5.33a22.14,22.14,0,0,1,15.8,6.44A22.39,22.39,0,0,1,688.9,124.44Z"/><path class="cls-2" d="M407.13,124.44V149.2h-8.66V124.44a13.64,13.64,0,0,0-27.28,0h0V149.2h-8.66V124.44a13.59,13.59,0,1,0-27.17-.74q0,.37,0,.74V149.2H326.7V103.1h8.66v4.43c3.93-3,8.66-5.33,13.59-5.33a22.53,22.53,0,0,1,15.8,6.84,16.49,16.49,0,0,1,2.11,2.52,26.33,26.33,0,0,1,2.21-2.52,22.53,22.53,0,0,1,15.8-6.84,22.16,22.16,0,0,1,22.24,22.08q0,.08,0,.16Z"/><path class="cls-2" d="M463.39,126.16a24.38,24.38,0,1,1-25.14-24h1A24.05,24.05,0,0,1,463.39,126Zm-8.66,0a15.5,15.5,0,1,0-15.5,15.5h0a15.42,15.42,0,0,0,15.5-15.34Q454.73,126.24,454.73,126.16Z"/><path class="cls-1" d="M407.13,124.44V149.2h-8.66V124.44a13.64,13.64,0,0,0-27.28,0h0V149.2h-8.66V124.44a13.59,13.59,0,1,0-27.17-.74q0,.37,0,.74V149.2H326.7V103.1h8.66v4.43c3.93-3,8.66-5.33,13.59-5.33a22.53,22.53,0,0,1,15.8,6.84,16.49,16.49,0,0,1,2.11,2.52,26.33,26.33,0,0,1,2.21-2.52,22.53,22.53,0,0,1,15.8-6.84,22.16,22.16,0,0,1,22.24,22.08q0,.08,0,.16Z"/><path class="cls-1" d="M463.39,126.16a24.38,24.38,0,1,1-25.14-24h1A24.05,24.05,0,0,1,463.39,126Zm-8.66,0a15.5,15.5,0,1,0-15.5,15.5h0a15.42,15.42,0,0,0,15.5-15.34Q454.73,126.24,454.73,126.16Z"/><circle class="cls-2" cx="487.48" cy="139.88" r="9.5"/><path class="cls-2" d="M552,109.13l-9.08,7.29q-5.53-4.4-10-4.4a7.5,7.5,0,0,0-3.87.84,2.44,2.44,0,0,0-1.4,2.09,2.33,2.33,0,0,0,.89,1.75,17.45,17.45,0,0,0,4.38,2.18l5.37,2.16q8.49,3.37,11.66,6.86a11.82,11.82,0,0,1,3.17,8.2q0,6.26-5.72,10.44T532,150.73q-12.79,0-20.42-8l9-7.9a20.7,20.7,0,0,0,6,3.91,15.89,15.89,0,0,0,6.15,1.49,8.63,8.63,0,0,0,4.67-1.12,3.14,3.14,0,0,0,1.77-2.59q0-2.72-6.39-5.31l-4.94-2q-14.19-5.74-14.18-14.37,0-5.57,5.35-9.52t13.67-3.95a28.63,28.63,0,0,1,10.72,2A23.21,23.21,0,0,1,552,109.13Z"/><path class="cls-2" d="M567.2,83.23a7.69,7.69,0,0,1,7.68,7.68,7.62,7.62,0,0,1-7.6,7.6,7.73,7.73,0,0,1-7.73-7.77,7.17,7.17,0,0,1,2.24-5.31A7.42,7.42,0,0,1,567.2,83.23Zm-6,19.33h12v47h-12Z"/><path class="cls-2" d="M619.54,102.57h12v40.22q0,11.91-4.89,17.52-6.56,7.59-19.77,7.6A35.28,35.28,0,0,1,595,166.18a21.36,21.36,0,0,1-8.1-5.07A20.59,20.59,0,0,1,582,153h13.25a11,11,0,0,0,4.53,3,19.12,19.12,0,0,0,6.56,1,17.6,17.6,0,0,0,7.79-1.47,9,9,0,0,0,4.16-3.8q1.21-2.33,1.21-8a19.93,19.93,0,0,1-6.65,4.47,21.52,21.52,0,0,1-7.88,1.36,21.87,21.87,0,0,1-16.29-6.82q-6.65-6.82-6.65-17.26,0-11.18,7-18a21.24,21.24,0,0,1,15.23-6.13,20.63,20.63,0,0,1,7.82,1.49,24.81,24.81,0,0,1,7.38,4.9Zm-12.46,9.8a12.65,12.65,0,0,0-9.38,3.73,12.79,12.79,0,0,0-3.7,9.39,12.9,12.9,0,0,0,13.3,13.38,12.43,12.43,0,0,0,9.22-3.67,13.08,13.08,0,0,0,3.63-9.62A12.93,12.93,0,0,0,616.5,116,12.73,12.73,0,0,0,607.07,112.36Z"/><path class="cls-2" d="M733.13,102.57h12v47h-12v-5a23.6,23.6,0,0,1-7.06,4.73,20.11,20.11,0,0,1-7.67,1.45,21.51,21.51,0,0,1-16.05-7.06,24.34,24.34,0,0,1-6.77-17.54q0-10.88,6.55-17.82A21.07,21.07,0,0,1,718,101.36a20.59,20.59,0,0,1,8.09,1.6,22.1,22.1,0,0,1,7,4.79Zm-12.64,9.67a12.26,12.26,0,0,0-9.26,3.86,13.76,13.76,0,0,0-3.69,9.9,13.9,13.9,0,0,0,3.75,10,12.27,12.27,0,0,0,9.24,3.93,12.5,12.5,0,0,0,9.39-3.86A14,14,0,0,0,733.66,126a13.56,13.56,0,0,0-3.73-9.93A12.67,12.67,0,0,0,720.5,112.23Z"/><path class="cls-2" d="M758.76,85.26h12v17.31h7.13v10.14h-7.13v36.81h-12V112.71H752.6V102.57h6.16Z"/><path class="cls-2" d="M784.3,102.57h12.15v22.61q0,6.6.93,9.17a8,8,0,0,0,3,4,8.65,8.65,0,0,0,5.05,1.42,9,9,0,0,0,5.1-1.4,8.24,8.24,0,0,0,3.11-4.12q.75-2,.75-8.67v-23h12v19.89q0,12.3-2,16.83a18.45,18.45,0,0,1-7.13,8.48q-4.71,3-12,3-7.88,0-12.75-3.45a18.24,18.24,0,0,1-6.85-9.62q-1.41-4.27-1.41-15.54Z"/><path class="cls-2" d="M835.64,102.57h10.3v5.91a12.68,12.68,0,0,1,4.45-5.31,10.89,10.89,0,0,1,6.08-1.81,11.44,11.44,0,0,1,4.89,1.21l-3.74,10.14a8.39,8.39,0,0,0-3.48-1q-2.77,0-4.69,3.37t-1.91,13.21l0,2.29v19H835.64Z"/><path class="cls-2" d="M915.29,129.45H876.67a12.53,12.53,0,0,0,4.47,8,14.21,14.21,0,0,0,9.27,3A16.19,16.19,0,0,0,902,135.75l10.13,4.66A23.76,23.76,0,0,1,903,148.2a28.85,28.85,0,0,1-12.55,2.52q-11.27,0-18.36-7a23.47,23.47,0,0,1-7.09-17.46,24.26,24.26,0,0,1,7.07-17.84,24,24,0,0,1,17.72-7.1q11.32,0,18.41,7.1t7.09,18.75Zm-12-9.28a11.84,11.84,0,0,0-4.7-6.39,13.81,13.81,0,0,0-8.14-2.46,14.59,14.59,0,0,0-8.82,2.76,15.41,15.41,0,0,0-4.41,6.08Z"/></g><g id="Calque_2" data-name="Calque 2"><path class="cls-4" d="M81.75,43.25C78.88,18,84.75,6.88,95,17.38c6.19,6.32,11.23,23,17.59,21.31,4.28-1.16,6.93-13.4,10.51-14.13,2.53-.51,2.63,5.29,6,4.66,2.14-.39,3.65-3,6.18-5.18,3.44-3,10.37-6.74,25.78-9.79"/></g></svg>